# xmcd
#
# Track frame offsets:
#	150
#	18135
#	34719
#	52787
#	69483
#	84600
#	102337
#	120807
#	143564
#	164678
#	182692
#	201386
#	220489
#	236003
#	253233
#	277650
#	298574
#	316282
#	335725
#
# Disc length: 4706 seconds
#
# Revision: 24
# Processed by: cddbd v1.5.2PL0 Copyright (c) Steve Scherf et al.
# Submitted via: EasyCDDAExtractor 15.3.0.1
#
DISCID=11126013
DTITLE=Cher - The Very Best Of Cher - CD 1
DYEAR=2003
DGENRE=Pop/Rock
TTITLE0=Believe
TTITLE1=Strong Enough
TTITLE2=If I Could Turn Back Time
TTITLE3=I Found Someone
TTITLE4=Song For The Lonely
TTITLE5=Walking In Memphis
TTITLE6=Just Like Jesse James
TTITLE7=One By One
TTITLE8=Love And Understanding
TTITLE9=Save Up All Your Tears
TTITLE10=Piu Che Puoi (Eros Ramazzotti Featuring Cher)
TTITLE11=Love Can Build A Bridge (Cher, Chrissie Hynde and Neneh Cherry)
TTITLE12=Take Me Home
TTITLE13=Rudy
TTITLE14=Bad Love (From The Film ''Foxes'')
TTITLE15=When The Money's Gone
TTITLE16=All Or Nothing
TTITLE17=Alive Again
TTITLE18=A Different Kind Of Love Song
EXTD=YEAR: 2003
EXTT0=
EXTT1=
EXTT2=
EXTT3=
EXTT4=
EXTT5=
EXTT6=
EXTT7=
EXTT8=
EXTT9=
EXTT10=
EXTT11=
EXTT12=
EXTT13=
EXTT14=
EXTT15=
EXTT16=
EXTT17=
EXTT18=
PLAYORDER=
